<?xml version="1.0" encoding="UTF-8"?>
<svg id="LOGO" xmlns="http://www.w3.org/2000/svg" viewBox="0 0 680 100">
  <defs>
    <style>
      .cls-1 {
        fill: #a31410;
      }

      .cls-2 {
        fill: #dd1b16;
      }
    </style>
  </defs>
  <g>
    <path d="M162.26,66.8h-5.7l-9.48-22.54c-.48-1.17-1.03-2.89-1.03-2.89h-.14s-.48,1.72-.96,2.89l-9.55,22.54h-5.7l-18.35-39.99c-.14-.27-.28-.62-.28-.82s.14-.41.55-.41h8.25c.83,0,.96,0,1.38.89l9.28,19.72c1.03,2.13,2.2,5.98,2.2,5.98h.28s.69-2.61,1.65-4.81l9.14-21.78h4.4l9.14,21.78c.96,2.27,1.65,4.81,1.65,4.81h.28s1.17-3.85,2.2-5.98l9.28-19.72c.41-.82.55-.89,1.38-.89h8.25c.41,0,.55.21.55.41s-.14.55-.28.82l-18.35,39.99Z"/>
    <path d="M195.78,49.62v9.34h24.19c.41,0,.96.55.96.96v5.91c0,.41-.55.96-.96.96h-32.71c-.41,0-.83-.41-.83-.82V26.4c0-.41.41-.83.83-.83h32.3c.41,0,.96.55.96.96v5.91c0,.41-.55.96-.96.96h-23.78v8.38h21.71c.41,0,.96.55.96.96v5.91c0,.41-.55.96-.96.96h-21.71Z"/>
    <path d="M257.21,59.65h-20.06l-2.95,6.25c-.41.83-.62.89-1.44.89h-8.18c-.41,0-.55-.28-.55-.48s.14-.55.28-.82l19.38-39.92h7.15l19.38,39.92c.14.27.28.62.28.82s-.14.48-.55.48h-8.18c-.83,0-1.03-.07-1.44-.89l-3.09-6.25ZM240.44,52.37h13.61l-3.71-7.63c-1.44-2.95-2.89-7.35-2.89-7.35h-.41s-1.44,4.4-2.89,7.35l-3.71,7.63Z"/>
    <path d="M265.93,33.41c-.41,0-.96-.55-.96-.96v-5.91c0-.41.55-.96.96-.96h39.03c.41,0,.96.55.96.96v5.91c0,.41-.55.96-.96.96h-14.84v32.57c0,.41-.41.82-.83.82h-7.69c-.41,0-.83-.41-.83-.82v-32.57h-14.84Z"/>
    <path d="M353.88,65.98c0,.41-.41.82-.82.82h-7.7c-.41,0-.83-.41-.83-.82v-14.64h-23.7v14.64c0,.41-.41.82-.83.82h-7.7c-.41,0-.82-.41-.82-.82V26.4c0-.41.41-.83.82-.83h7.7c.41,0,.83.41.83.83v17.11h23.7v-17.11c0-.41.41-.83.83-.83h7.7c.41,0,.82.41.82.83v39.58Z"/>
    <path d="M372.97,49.62v9.34h24.19c.41,0,.96.55.96.96v5.91c0,.41-.55.96-.96.96h-32.71c-.41,0-.83-.41-.83-.82V26.4c0-.41.41-.83.83-.83h32.3c.41,0,.96.55.96.96v5.91c0,.41-.55.96-.96.96h-23.78v8.38h21.71c.41,0,.96.55.96.96v5.91c0,.41-.55.96-.96.96h-21.71Z"/>
    <path d="M405.4,26.4c0-.41.41-.83.83-.83h19.1c10.03,0,17.18,5.43,17.18,14.43,0,6.25-3.78,10.44-9.28,12.37v.14s1.24,1.31,2.2,2.75l6.94,10.17c.34.48.41.76.41.89,0,.28-.14.48-.55.48h-9.14c-.34,0-.83-.28-1.1-.69l-8.38-12.23h-8.86v12.09c0,.41-.41.82-.83.82h-7.69c-.41,0-.83-.41-.83-.82V26.4ZM414.75,33.41v13.06h9.96c5.15,0,8.45-2.41,8.45-6.46s-3.3-6.6-8.45-6.6h-9.96Z"/>
    <path class="cls-2" d="M479.19,59.65h-20.06l-2.95,6.25c-.41.83-.62.89-1.44.89h-8.18c-.41,0-.55-.28-.55-.48s.14-.55.28-.82l19.38-39.92h7.15l19.38,39.92c.14.27.28.62.28.82s-.14.48-.55.48h-8.18c-.83,0-1.03-.07-1.44-.89l-3.09-6.25ZM462.43,52.37h13.61l-3.71-7.63c-1.44-2.95-2.89-7.35-2.89-7.35h-.41s-1.44,4.4-2.89,7.35l-3.71,7.63Z"/>
    <path class="cls-2" d="M533.27,66.8l-21.03-21.44c-2.2-2.2-4.67-5.29-4.67-5.29h-.21v25.91c0,.41-.41.82-.83.82h-7.69c-.41,0-.83-.41-.83-.82V26.4c0-.41.41-.83.83-.83h6.32l20.82,21.16c2.27,2.27,4.81,5.57,4.81,5.57h.28v-25.91c0-.41.41-.83.83-.83h7.69c.41,0,.83.41.83.83v39.58c0,.41-.41.82-.83.82h-6.32Z"/>
    <path class="cls-2" d="M592.49,48.25c0,10.58-7.49,19.24-21.71,19.24-12.44,0-22.74-8.25-22.74-21.3s9.89-21.3,22.74-21.3c14.22,0,20.2,8.73,20.34,14.84,0,.41-.28.89-1.1.89h-7.08c-.41,0-.89-.14-1.03-.69-.76-3.3-3.98-7.21-11.13-7.21s-13.4,5.57-13.4,13.47c0,8.73,6.32,13.47,13.4,13.47s11.89-3.71,12.16-7.7h-15.19c-.41,0-.96-.55-.96-.96v-5.22c0-.41.55-.96.96-.96h24.74v3.44Z"/>
    <path class="cls-2" d="M609.46,58.97h20.34c.41,0,.96.55.96.96v5.91c0,.41-.55.96-.96.96h-28.86c-.41,0-.83-.41-.83-.82V26.4c0-.41.41-.83.83-.83h7.69c.41,0,.83.41.83.83v32.57Z"/>
    <path class="cls-2" d="M646.35,49.62v9.34h24.19c.41,0,.96.55.96.96v5.91c0,.41-.55.96-.96.96h-32.71c-.41,0-.82-.41-.82-.82V26.4c0-.41.41-.83.82-.83h32.3c.41,0,.96.55.96.96v5.91c0,.41-.55.96-.96.96h-23.77v8.38h21.71c.41,0,.96.55.96.96v5.91c0,.41-.55.96-.96.96h-21.71Z"/>
  </g>
  <g>
    <path class="cls-1" d="M49.03,52.04l9.47-5.16c-5.23-9.61-15.63-15-26.5-13.71l1.27,10.71c6.36-.75,12.7,2.53,15.77,8.16Z"/>
    <path class="cls-2" d="M59.78,47.42l-22.6,38.99-3.27-.15c-14.25-.65-25.42-12.34-25.42-26.62,0-12.32,8.4-22.86,20.03-25.83,5.01-12.67,17.41-21.25,31.25-21.25,13.84,0,26.23,8.58,31.24,21.25,11.64,2.97,20.04,13.51,20.04,25.83,0,14.28-11.17,25.97-25.42,26.62l-3.27.15-22.6-38.99ZM88.26,75.04c6.95-1.71,12.03-7.97,12.03-15.4,0-8.04-6.01-14.82-13.99-15.76l-3.58-.42-.97-3.48c-2.74-9.79-11.77-16.63-21.96-16.63s-19.22,6.84-21.96,16.63l-.97,3.48-3.58.42c-7.97.94-13.98,7.72-13.98,15.76,0,7.44,5.08,13.69,12.03,15.4l28.47-49.13,28.47,49.13Z"/>
    <polygon class="cls-1" points="45.49 87.44 74.08 87.44 59.78 62.77 45.49 87.44"/>
    <polygon class="cls-1" points="59.78 25.91 59.78 46.88 82.38 86.41 88.26 75.04 59.78 25.91"/>
    <polygon class="cls-2" points="45.49 87.44 59.78 87.44 59.78 62.77 45.49 87.44"/>
  </g>
</svg>